# xmcd
#
# Track frame offsets: 
#        150
#        19757
#        41451
#        66003
#        85513
#        105469
#        148578
#        166928
#        201230
#        218218
#        244752
#
# Disc length: 3480 seconds
#
# Revision: 1
# Processed by: cddbd v1.5.2PL0 Copyright (c) Steve Scherf et al.
# Submitted via: ExactAudioCopy v1.1
#
DISCID=8d0d960b
DTITLE=RUDY LINKA TRIO - Trip
DYEAR=2005
DGENRE=Jazz
TTITLE0=Are We There Yet?
TTITLE1=Minor Delays
TTITLE2=Just Another Detour
TTITLE3=In The Name Of The Groove
TTITLE4=B Flat Boogie (Mesa)
TTITLE5=In Love In Vain
TTITLE6=Road Jam
TTITLE7=EW From Here
TTITLE8=Leaving In Two
TTITLE9=Again?
TTITLE10=Road Wide Open
EXTD=YEAR: 2005
EXTT0=
EXTT1=
EXTT2=
EXTT3=
EXTT4=
EXTT5=
EXTT6=
EXTT7=
EXTT8=
EXTT9=
EXTT10=
PLAYORDER=
